<mxfile host="app.diagrams.net" modified="2024-03-08T21:23:00.321Z" agent="Mozilla/5.0 (Macintosh; Intel Mac OS X 10_15_7) AppleWebKit/537.36 (KHTML, like Gecko) Chrome/121.0.0.0 Safari/537.36" etag="S_gTsazAPnJIKRCndpJY" version="24.0.2" type="github" pages="2">
  <diagram id="XXDUhg0r5gsSnikIM7OF" name="ER-diagram_V2">
    <mxGraphModel dx="2116" dy="657" grid="1" gridSize="10" guides="1" tooltips="1" connect="1" arrows="1" fold="1" page="1" pageScale="1" pageWidth="850" pageHeight="1100" math="0" shadow="0">
      <root>
        <mxCell id="0" />
        <mxCell id="1" parent="0" />
        <mxCell id="b2223zaOqNi2kYBtWq65-1" value="Airport" style="rounded=0;whiteSpace=wrap;html=1;" parent="1" vertex="1">
          <mxGeometry x="412.5" y="205" width="120" height="60" as="geometry" />
        </mxCell>
        <mxCell id="b2223zaOqNi2kYBtWq65-3" value="Passengers" style="whiteSpace=wrap;html=1;" parent="1" vertex="1">
          <mxGeometry x="-50" y="600.04" width="120" height="60" as="geometry" />
        </mxCell>
        <mxCell id="b2223zaOqNi2kYBtWq65-4" value="Flights" style="whiteSpace=wrap;html=1;" parent="1" vertex="1">
          <mxGeometry x="-47.96999999999997" y="205" width="120" height="60" as="geometry" />
        </mxCell>
        <mxCell id="b2223zaOqNi2kYBtWq65-5" value="airport_name" style="ellipse;whiteSpace=wrap;html=1;align=center;" parent="1" vertex="1">
          <mxGeometry x="450" y="130" width="80" height="40" as="geometry" />
        </mxCell>
        <mxCell id="b2223zaOqNi2kYBtWq65-6" value="AID" style="ellipse;whiteSpace=wrap;html=1;align=center;fontStyle=4;" parent="1" vertex="1">
          <mxGeometry x="380" y="135" width="60" height="30" as="geometry" />
        </mxCell>
        <mxCell id="b2223zaOqNi2kYBtWq65-7" value="country" style="ellipse;whiteSpace=wrap;html=1;align=center;" parent="1" vertex="1">
          <mxGeometry x="300" y="135" width="60" height="30" as="geometry" />
        </mxCell>
        <mxCell id="b2223zaOqNi2kYBtWq65-8" value="city" style="ellipse;whiteSpace=wrap;html=1;align=center;" parent="1" vertex="1">
          <mxGeometry x="545" y="140" width="60" height="20" as="geometry" />
        </mxCell>
        <mxCell id="b2223zaOqNi2kYBtWq65-9" value="" style="endArrow=none;html=1;rounded=0;entryX=0;entryY=0;entryDx=0;entryDy=0;exitX=1;exitY=1;exitDx=0;exitDy=0;" parent="1" source="b2223zaOqNi2kYBtWq65-7" target="b2223zaOqNi2kYBtWq65-1" edge="1">
          <mxGeometry relative="1" as="geometry">
            <mxPoint x="305" y="205" as="sourcePoint" />
            <mxPoint x="465" y="205" as="targetPoint" />
          </mxGeometry>
        </mxCell>
        <mxCell id="b2223zaOqNi2kYBtWq65-10" value="" style="endArrow=none;html=1;rounded=0;entryX=0.25;entryY=0;entryDx=0;entryDy=0;exitX=0.5;exitY=1;exitDx=0;exitDy=0;" parent="1" source="b2223zaOqNi2kYBtWq65-6" target="b2223zaOqNi2kYBtWq65-1" edge="1">
          <mxGeometry relative="1" as="geometry">
            <mxPoint x="351" y="170" as="sourcePoint" />
            <mxPoint x="410" y="189" as="targetPoint" />
          </mxGeometry>
        </mxCell>
        <mxCell id="b2223zaOqNi2kYBtWq65-11" value="" style="endArrow=none;html=1;rounded=0;entryX=0.5;entryY=0;entryDx=0;entryDy=0;exitX=0.5;exitY=1;exitDx=0;exitDy=0;" parent="1" source="b2223zaOqNi2kYBtWq65-5" target="b2223zaOqNi2kYBtWq65-1" edge="1">
          <mxGeometry relative="1" as="geometry">
            <mxPoint x="460" y="185" as="sourcePoint" />
            <mxPoint x="500" y="194" as="targetPoint" />
          </mxGeometry>
        </mxCell>
        <mxCell id="b2223zaOqNi2kYBtWq65-12" value="" style="endArrow=none;html=1;rounded=0;entryX=0.954;entryY=0.005;entryDx=0;entryDy=0;entryPerimeter=0;exitX=0.5;exitY=1;exitDx=0;exitDy=0;" parent="1" source="b2223zaOqNi2kYBtWq65-8" target="b2223zaOqNi2kYBtWq65-1" edge="1">
          <mxGeometry relative="1" as="geometry">
            <mxPoint x="550" y="165" as="sourcePoint" />
            <mxPoint x="710" y="165" as="targetPoint" />
          </mxGeometry>
        </mxCell>
        <mxCell id="b2223zaOqNi2kYBtWq65-13" value="status" style="ellipse;whiteSpace=wrap;html=1;align=center;" parent="1" vertex="1">
          <mxGeometry x="-50" y="100" width="60" height="40" as="geometry" />
        </mxCell>
        <mxCell id="b2223zaOqNi2kYBtWq65-14" value="arrival_time" style="ellipse;whiteSpace=wrap;html=1;align=center;" parent="1" vertex="1">
          <mxGeometry x="-202.5" y="140" width="70" height="40" as="geometry" />
        </mxCell>
        <mxCell id="b2223zaOqNi2kYBtWq65-15" value="flight_date" style="ellipse;whiteSpace=wrap;html=1;align=center;" parent="1" vertex="1">
          <mxGeometry x="20" y="100" width="70" height="40" as="geometry" />
        </mxCell>
        <mxCell id="b2223zaOqNi2kYBtWq65-16" value="departure_time" style="ellipse;whiteSpace=wrap;html=1;align=center;" parent="1" vertex="1">
          <mxGeometry x="120" y="125" width="90" height="55" as="geometry" />
        </mxCell>
        <mxCell id="b2223zaOqNi2kYBtWq65-17" value="FID" style="ellipse;whiteSpace=wrap;html=1;align=center;fontStyle=4;" parent="1" vertex="1">
          <mxGeometry x="-119.99999999999997" y="112.5" width="60" height="45" as="geometry" />
        </mxCell>
        <mxCell id="b2223zaOqNi2kYBtWq65-18" value="" style="endArrow=none;html=1;rounded=0;exitX=0.5;exitY=1;exitDx=0;exitDy=0;entryX=0;entryY=0;entryDx=0;entryDy=0;" parent="1" source="b2223zaOqNi2kYBtWq65-17" target="b2223zaOqNi2kYBtWq65-4" edge="1">
          <mxGeometry relative="1" as="geometry">
            <mxPoint x="-340" y="315" as="sourcePoint" />
            <mxPoint x="-179.99999999999997" y="315" as="targetPoint" />
            <Array as="points" />
          </mxGeometry>
        </mxCell>
        <mxCell id="b2223zaOqNi2kYBtWq65-19" value="" style="endArrow=none;html=1;rounded=0;exitX=0.41;exitY=1.062;exitDx=0;exitDy=0;entryX=0.5;entryY=0;entryDx=0;entryDy=0;exitPerimeter=0;" parent="1" source="b2223zaOqNi2kYBtWq65-15" target="b2223zaOqNi2kYBtWq65-4" edge="1">
          <mxGeometry relative="1" as="geometry">
            <mxPoint x="-69.99999999999997" y="175" as="sourcePoint" />
            <mxPoint x="-49.99999999999997" y="195" as="targetPoint" />
            <Array as="points" />
          </mxGeometry>
        </mxCell>
        <mxCell id="b2223zaOqNi2kYBtWq65-20" value="" style="endArrow=none;html=1;rounded=0;exitX=0;exitY=1;exitDx=0;exitDy=0;entryX=1;entryY=0;entryDx=0;entryDy=0;" parent="1" source="b2223zaOqNi2kYBtWq65-16" target="b2223zaOqNi2kYBtWq65-4" edge="1">
          <mxGeometry relative="1" as="geometry">
            <mxPoint x="13.000000000000028" y="167" as="sourcePoint" />
            <mxPoint x="10.000000000000028" y="195" as="targetPoint" />
            <Array as="points" />
          </mxGeometry>
        </mxCell>
        <mxCell id="b2223zaOqNi2kYBtWq65-21" value="" style="endArrow=none;html=1;rounded=0;exitX=1;exitY=1;exitDx=0;exitDy=0;entryX=0;entryY=0.25;entryDx=0;entryDy=0;" parent="1" source="b2223zaOqNi2kYBtWq65-14" target="b2223zaOqNi2kYBtWq65-4" edge="1">
          <mxGeometry relative="1" as="geometry">
            <mxPoint x="23.00000000000003" y="177" as="sourcePoint" />
            <mxPoint x="20.00000000000003" y="205" as="targetPoint" />
            <Array as="points" />
          </mxGeometry>
        </mxCell>
        <mxCell id="b2223zaOqNi2kYBtWq65-22" value="" style="endArrow=none;html=1;rounded=0;entryX=0.5;entryY=1;entryDx=0;entryDy=0;exitX=0.25;exitY=0;exitDx=0;exitDy=0;" parent="1" source="b2223zaOqNi2kYBtWq65-4" target="b2223zaOqNi2kYBtWq65-13" edge="1">
          <mxGeometry relative="1" as="geometry">
            <mxPoint x="72" y="265" as="sourcePoint" />
            <mxPoint x="30.00000000000003" y="215" as="targetPoint" />
            <Array as="points" />
          </mxGeometry>
        </mxCell>
        <mxCell id="b2223zaOqNi2kYBtWq65-23" value="ArID" style="ellipse;whiteSpace=wrap;html=1;align=center;fontStyle=4;" parent="1" vertex="1">
          <mxGeometry x="-540" y="112.5" width="60" height="40" as="geometry" />
        </mxCell>
        <mxCell id="b2223zaOqNi2kYBtWq65-24" value="first_class_capacity" style="ellipse;whiteSpace=wrap;html=1;align=center;" parent="1" vertex="1">
          <mxGeometry x="-650" y="285" width="120" height="60" as="geometry" />
        </mxCell>
        <mxCell id="b2223zaOqNi2kYBtWq65-25" value="" style="endArrow=none;html=1;rounded=0;exitX=1;exitY=0;exitDx=0;exitDy=0;entryX=0;entryY=1;entryDx=0;entryDy=0;" parent="1" source="b2223zaOqNi2kYBtWq65-24" target="b2223zaOqNi2kYBtWq65-116" edge="1">
          <mxGeometry relative="1" as="geometry">
            <mxPoint x="-350" y="275" as="sourcePoint" />
            <mxPoint x="-470" y="260" as="targetPoint" />
          </mxGeometry>
        </mxCell>
        <mxCell id="b2223zaOqNi2kYBtWq65-26" value="" style="endArrow=none;html=1;rounded=0;exitX=1;exitY=1;exitDx=0;exitDy=0;entryX=0;entryY=0;entryDx=0;entryDy=0;" parent="1" source="b2223zaOqNi2kYBtWq65-23" target="b2223zaOqNi2kYBtWq65-116" edge="1">
          <mxGeometry relative="1" as="geometry">
            <mxPoint x="-570" y="215" as="sourcePoint" />
            <mxPoint x="-470" y="207.5" as="targetPoint" />
          </mxGeometry>
        </mxCell>
        <mxCell id="b2223zaOqNi2kYBtWq65-28" value="status" style="ellipse;whiteSpace=wrap;html=1;align=center;" parent="1" vertex="1">
          <mxGeometry x="-112.97" y="359.78" width="65" height="40" as="geometry" />
        </mxCell>
        <mxCell id="b2223zaOqNi2kYBtWq65-29" value="price" style="ellipse;whiteSpace=wrap;html=1;align=center;" parent="1" vertex="1">
          <mxGeometry x="-114.99999999999989" y="450" width="65" height="40" as="geometry" />
        </mxCell>
        <mxCell id="b2223zaOqNi2kYBtWq65-30" value="seat_number" style="ellipse;whiteSpace=wrap;html=1;align=center;" parent="1" vertex="1">
          <mxGeometry x="60" y="450" width="87.97" height="45" as="geometry" />
        </mxCell>
        <mxCell id="b2223zaOqNi2kYBtWq65-31" value="fare_class" style="ellipse;whiteSpace=wrap;html=1;align=center;" parent="1" vertex="1">
          <mxGeometry x="70.00000000000006" y="359.78" width="65" height="40" as="geometry" />
        </mxCell>
        <mxCell id="b2223zaOqNi2kYBtWq65-32" value="" style="endArrow=none;html=1;rounded=0;exitX=0;exitY=0;exitDx=0;exitDy=0;entryX=1;entryY=1;entryDx=0;entryDy=0;" parent="1" source="b2223zaOqNi2kYBtWq65-67" target="b2223zaOqNi2kYBtWq65-28" edge="1">
          <mxGeometry relative="1" as="geometry">
            <mxPoint x="503.6600000000001" y="470.16999999999996" as="sourcePoint" />
            <mxPoint x="663.6600000000001" y="470.16999999999996" as="targetPoint" />
          </mxGeometry>
        </mxCell>
        <mxCell id="b2223zaOqNi2kYBtWq65-34" value="" style="endArrow=none;html=1;rounded=0;exitX=0;exitY=1;exitDx=0;exitDy=0;entryX=1;entryY=0.5;entryDx=0;entryDy=0;" parent="1" source="b2223zaOqNi2kYBtWq65-67" target="b2223zaOqNi2kYBtWq65-29" edge="1">
          <mxGeometry relative="1" as="geometry">
            <mxPoint x="443.6600000000001" y="540.17" as="sourcePoint" />
            <mxPoint x="404.6600000000001" y="579.17" as="targetPoint" />
            <Array as="points" />
          </mxGeometry>
        </mxCell>
        <mxCell id="b2223zaOqNi2kYBtWq65-35" value="" style="endArrow=none;html=1;rounded=0;entryX=0.032;entryY=0.286;entryDx=0;entryDy=0;entryPerimeter=0;exitX=1;exitY=1;exitDx=0;exitDy=0;" parent="1" source="b2223zaOqNi2kYBtWq65-67" target="b2223zaOqNi2kYBtWq65-30" edge="1">
          <mxGeometry relative="1" as="geometry">
            <mxPoint x="524" y="529.78" as="sourcePoint" />
            <mxPoint x="124.61787112835918" y="450.577299321051" as="targetPoint" />
          </mxGeometry>
        </mxCell>
        <mxCell id="b2223zaOqNi2kYBtWq65-36" value="" style="endArrow=none;html=1;rounded=0;entryX=0;entryY=1;entryDx=0;entryDy=0;exitX=1;exitY=0;exitDx=0;exitDy=0;" parent="1" source="b2223zaOqNi2kYBtWq65-67" target="b2223zaOqNi2kYBtWq65-31" edge="1">
          <mxGeometry relative="1" as="geometry">
            <mxPoint x="70" y="427.78" as="sourcePoint" />
            <mxPoint x="585.8578617776345" y="605.9186636110211" as="targetPoint" />
          </mxGeometry>
        </mxCell>
        <mxCell id="b2223zaOqNi2kYBtWq65-37" value="Lname" style="ellipse;whiteSpace=wrap;html=1;align=center;" parent="1" vertex="1">
          <mxGeometry x="-280" y="545.04" width="60" height="50" as="geometry" />
        </mxCell>
        <mxCell id="b2223zaOqNi2kYBtWq65-39" value="name" style="ellipse;whiteSpace=wrap;html=1;align=center;" parent="1" vertex="1">
          <mxGeometry x="-180" y="580.04" width="60" height="50" as="geometry" />
        </mxCell>
        <mxCell id="b2223zaOqNi2kYBtWq65-40" value="Fname" style="ellipse;whiteSpace=wrap;html=1;align=center;" parent="1" vertex="1">
          <mxGeometry x="-275" y="630.04" width="55" height="50" as="geometry" />
        </mxCell>
        <mxCell id="b2223zaOqNi2kYBtWq65-41" value="gender" style="ellipse;whiteSpace=wrap;html=1;align=center;" parent="1" vertex="1">
          <mxGeometry x="155" y="685.04" width="55" height="40" as="geometry" />
        </mxCell>
        <mxCell id="b2223zaOqNi2kYBtWq65-42" value="address" style="ellipse;whiteSpace=wrap;html=1;align=center;" parent="1" vertex="1">
          <mxGeometry x="170" y="605.0400000000002" width="65" height="50" as="geometry" />
        </mxCell>
        <mxCell id="b2223zaOqNi2kYBtWq65-43" value="age" style="ellipse;whiteSpace=wrap;html=1;align=center;" parent="1" vertex="1">
          <mxGeometry x="-210" y="680.04" width="60" height="40" as="geometry" />
        </mxCell>
        <mxCell id="b2223zaOqNi2kYBtWq65-44" value="&lt;u&gt;nationality&lt;/u&gt;" style="ellipse;whiteSpace=wrap;html=1;align=center;" parent="1" vertex="1">
          <mxGeometry x="-130" y="715.0400000000001" width="70" height="40" as="geometry" />
        </mxCell>
        <mxCell id="b2223zaOqNi2kYBtWq65-45" value="&lt;u&gt;passport_no&lt;/u&gt;" style="ellipse;whiteSpace=wrap;html=1;align=center;" parent="1" vertex="1">
          <mxGeometry x="-40" y="715.04" width="70" height="50" as="geometry" />
        </mxCell>
        <mxCell id="b2223zaOqNi2kYBtWq65-46" value="phone_number" style="ellipse;shape=doubleEllipse;margin=3;whiteSpace=wrap;html=1;align=center;" parent="1" vertex="1">
          <mxGeometry x="50" y="710.06" width="105" height="59.96" as="geometry" />
        </mxCell>
        <mxCell id="b2223zaOqNi2kYBtWq65-48" value="" style="endArrow=none;html=1;rounded=0;exitX=0;exitY=0.5;exitDx=0;exitDy=0;entryX=1;entryY=0.5;entryDx=0;entryDy=0;" parent="1" source="b2223zaOqNi2kYBtWq65-42" target="b2223zaOqNi2kYBtWq65-3" edge="1">
          <mxGeometry relative="1" as="geometry">
            <mxPoint x="-187.5" y="615.04" as="sourcePoint" />
            <mxPoint x="-72.5" y="655.04" as="targetPoint" />
          </mxGeometry>
        </mxCell>
        <mxCell id="b2223zaOqNi2kYBtWq65-49" value="" style="endArrow=none;html=1;rounded=0;entryX=0;entryY=1;entryDx=0;entryDy=0;exitX=1;exitY=0;exitDx=0;exitDy=0;" parent="1" source="b2223zaOqNi2kYBtWq65-43" target="b2223zaOqNi2kYBtWq65-3" edge="1">
          <mxGeometry relative="1" as="geometry">
            <mxPoint x="-187.5" y="615.04" as="sourcePoint" />
            <mxPoint x="-27.5" y="615.04" as="targetPoint" />
          </mxGeometry>
        </mxCell>
        <mxCell id="b2223zaOqNi2kYBtWq65-50" value="" style="endArrow=none;html=1;rounded=0;entryX=0.25;entryY=1;entryDx=0;entryDy=0;exitX=0.5;exitY=0;exitDx=0;exitDy=0;" parent="1" source="b2223zaOqNi2kYBtWq65-44" target="b2223zaOqNi2kYBtWq65-3" edge="1">
          <mxGeometry relative="1" as="geometry">
            <mxPoint x="-187.5" y="615.04" as="sourcePoint" />
            <mxPoint x="-27.5" y="615.04" as="targetPoint" />
          </mxGeometry>
        </mxCell>
        <mxCell id="b2223zaOqNi2kYBtWq65-51" value="" style="endArrow=none;html=1;rounded=0;entryX=0.5;entryY=1;entryDx=0;entryDy=0;exitX=0.5;exitY=0;exitDx=0;exitDy=0;" parent="1" source="b2223zaOqNi2kYBtWq65-45" target="b2223zaOqNi2kYBtWq65-3" edge="1">
          <mxGeometry relative="1" as="geometry">
            <mxPoint x="-187.5" y="615.04" as="sourcePoint" />
            <mxPoint x="-27.5" y="615.04" as="targetPoint" />
          </mxGeometry>
        </mxCell>
        <mxCell id="b2223zaOqNi2kYBtWq65-52" value="" style="endArrow=none;html=1;rounded=0;entryX=0.75;entryY=1;entryDx=0;entryDy=0;exitX=0.5;exitY=0;exitDx=0;exitDy=0;" parent="1" source="b2223zaOqNi2kYBtWq65-46" target="b2223zaOqNi2kYBtWq65-3" edge="1">
          <mxGeometry relative="1" as="geometry">
            <mxPoint x="-187.5" y="615.04" as="sourcePoint" />
            <mxPoint x="-27.5" y="615.04" as="targetPoint" />
          </mxGeometry>
        </mxCell>
        <mxCell id="b2223zaOqNi2kYBtWq65-53" value="" style="endArrow=none;html=1;rounded=0;entryX=1;entryY=1;entryDx=0;entryDy=0;exitX=0;exitY=0;exitDx=0;exitDy=0;" parent="1" source="b2223zaOqNi2kYBtWq65-41" target="b2223zaOqNi2kYBtWq65-3" edge="1">
          <mxGeometry relative="1" as="geometry">
            <mxPoint x="-187.5" y="615.04" as="sourcePoint" />
            <mxPoint x="-27.5" y="615.04" as="targetPoint" />
          </mxGeometry>
        </mxCell>
        <mxCell id="b2223zaOqNi2kYBtWq65-54" value="" style="endArrow=none;html=1;rounded=0;entryX=0;entryY=0.5;entryDx=0;entryDy=0;exitX=1;exitY=0.5;exitDx=0;exitDy=0;" parent="1" source="b2223zaOqNi2kYBtWq65-39" target="b2223zaOqNi2kYBtWq65-3" edge="1">
          <mxGeometry relative="1" as="geometry">
            <mxPoint x="-187.5" y="615.04" as="sourcePoint" />
            <mxPoint x="-27.5" y="615.04" as="targetPoint" />
          </mxGeometry>
        </mxCell>
        <mxCell id="b2223zaOqNi2kYBtWq65-55" value="" style="endArrow=none;html=1;rounded=0;entryX=1;entryY=0.5;entryDx=0;entryDy=0;exitX=0;exitY=1;exitDx=0;exitDy=0;" parent="1" source="b2223zaOqNi2kYBtWq65-39" target="b2223zaOqNi2kYBtWq65-40" edge="1">
          <mxGeometry relative="1" as="geometry">
            <mxPoint x="-508.75" y="614.27" as="sourcePoint" />
            <mxPoint x="-348.75" y="614.27" as="targetPoint" />
          </mxGeometry>
        </mxCell>
        <mxCell id="b2223zaOqNi2kYBtWq65-56" value="" style="endArrow=none;html=1;rounded=0;entryX=1;entryY=0.5;entryDx=0;entryDy=0;exitX=0.049;exitY=0.362;exitDx=0;exitDy=0;exitPerimeter=0;" parent="1" source="b2223zaOqNi2kYBtWq65-39" target="b2223zaOqNi2kYBtWq65-37" edge="1">
          <mxGeometry relative="1" as="geometry">
            <mxPoint x="-508.75" y="614.27" as="sourcePoint" />
            <mxPoint x="-348.75" y="614.27" as="targetPoint" />
          </mxGeometry>
        </mxCell>
        <mxCell id="b2223zaOqNi2kYBtWq65-58" value="Origin" style="shape=rhombus;perimeter=rhombusPerimeter;whiteSpace=wrap;html=1;align=center;" parent="1" vertex="1">
          <mxGeometry x="185" y="180" width="105" height="55" as="geometry" />
        </mxCell>
        <mxCell id="b2223zaOqNi2kYBtWq65-67" value="Book" style="shape=rhombus;perimeter=rhombusPerimeter;whiteSpace=wrap;html=1;align=center;" parent="1" vertex="1">
          <mxGeometry x="-40" y="399.78" width="100" height="55" as="geometry" />
        </mxCell>
        <mxCell id="b2223zaOqNi2kYBtWq65-77" style="edgeStyle=orthogonalEdgeStyle;rounded=0;orthogonalLoop=1;jettySize=auto;html=1;exitX=0.5;exitY=1;exitDx=0;exitDy=0;" parent="1" source="b2223zaOqNi2kYBtWq65-40" target="b2223zaOqNi2kYBtWq65-40" edge="1">
          <mxGeometry relative="1" as="geometry" />
        </mxCell>
        <mxCell id="b2223zaOqNi2kYBtWq65-83" value="model_name" style="ellipse;whiteSpace=wrap;html=1;align=center;" parent="1" vertex="1">
          <mxGeometry x="-620" y="152.5" width="80" height="45" as="geometry" />
        </mxCell>
        <mxCell id="b2223zaOqNi2kYBtWq65-84" value="" style="endArrow=none;html=1;rounded=0;exitX=1;exitY=0.5;exitDx=0;exitDy=0;entryX=0;entryY=0.5;entryDx=0;entryDy=0;" parent="1" source="b2223zaOqNi2kYBtWq65-83" target="b2223zaOqNi2kYBtWq65-116" edge="1">
          <mxGeometry relative="1" as="geometry">
            <mxPoint x="-280" y="159.38" as="sourcePoint" />
            <mxPoint x="-467.5300000000002" y="235.36000000000013" as="targetPoint" />
          </mxGeometry>
        </mxCell>
        <mxCell id="b2223zaOqNi2kYBtWq65-85" value="screen" style="ellipse;whiteSpace=wrap;html=1;align=center;" parent="1" vertex="1">
          <mxGeometry x="-530" y="330" width="70" height="45" as="geometry" />
        </mxCell>
        <mxCell id="b2223zaOqNi2kYBtWq65-86" value="wifi" style="ellipse;whiteSpace=wrap;html=1;align=center;" parent="1" vertex="1">
          <mxGeometry x="-440" y="330" width="75" height="45" as="geometry" />
        </mxCell>
        <mxCell id="b2223zaOqNi2kYBtWq65-87" value="" style="endArrow=none;html=1;rounded=0;exitX=1;exitY=0;exitDx=0;exitDy=0;entryX=0.25;entryY=1;entryDx=0;entryDy=0;" parent="1" source="b2223zaOqNi2kYBtWq65-85" target="b2223zaOqNi2kYBtWq65-116" edge="1">
          <mxGeometry relative="1" as="geometry">
            <mxPoint x="10" y="135" as="sourcePoint" />
            <mxPoint x="-430" y="255" as="targetPoint" />
          </mxGeometry>
        </mxCell>
        <mxCell id="b2223zaOqNi2kYBtWq65-88" value="" style="endArrow=none;html=1;rounded=0;exitX=0.5;exitY=0;exitDx=0;exitDy=0;entryX=0.5;entryY=1;entryDx=0;entryDy=0;" parent="1" source="b2223zaOqNi2kYBtWq65-86" target="b2223zaOqNi2kYBtWq65-116" edge="1">
          <mxGeometry relative="1" as="geometry">
            <mxPoint x="10" y="135" as="sourcePoint" />
            <mxPoint x="-405" y="260" as="targetPoint" />
          </mxGeometry>
        </mxCell>
        <mxCell id="b2223zaOqNi2kYBtWq65-90" style="edgeStyle=orthogonalEdgeStyle;rounded=0;orthogonalLoop=1;jettySize=auto;html=1;exitX=0.5;exitY=1;exitDx=0;exitDy=0;" parent="1" source="b2223zaOqNi2kYBtWq65-67" target="b2223zaOqNi2kYBtWq65-67" edge="1">
          <mxGeometry relative="1" as="geometry" />
        </mxCell>
        <mxCell id="b2223zaOqNi2kYBtWq65-96" value="" style="endArrow=none;html=1;rounded=0;exitX=0.5;exitY=0;exitDx=0;exitDy=0;entryX=0.5;entryY=1;entryDx=0;entryDy=0;" parent="1" source="b2223zaOqNi2kYBtWq65-67" target="b2223zaOqNi2kYBtWq65-4" edge="1">
          <mxGeometry relative="1" as="geometry">
            <mxPoint x="20" y="435" as="sourcePoint" />
            <mxPoint x="180" y="435" as="targetPoint" />
          </mxGeometry>
        </mxCell>
        <mxCell id="b2223zaOqNi2kYBtWq65-97" value="N" style="resizable=0;html=1;whiteSpace=wrap;align=right;verticalAlign=bottom;" parent="b2223zaOqNi2kYBtWq65-96" connectable="0" vertex="1">
          <mxGeometry x="1" relative="1" as="geometry">
            <mxPoint x="-12" y="65" as="offset" />
          </mxGeometry>
        </mxCell>
        <mxCell id="b2223zaOqNi2kYBtWq65-101" value="" style="endArrow=none;html=1;rounded=0;exitX=0.5;exitY=1;exitDx=0;exitDy=0;entryX=0.5;entryY=0;entryDx=0;entryDy=0;" parent="1" source="b2223zaOqNi2kYBtWq65-67" target="b2223zaOqNi2kYBtWq65-3" edge="1">
          <mxGeometry relative="1" as="geometry">
            <mxPoint x="20" y="435" as="sourcePoint" />
            <mxPoint x="180" y="435" as="targetPoint" />
          </mxGeometry>
        </mxCell>
        <mxCell id="b2223zaOqNi2kYBtWq65-102" value="N" style="resizable=0;html=1;whiteSpace=wrap;align=right;verticalAlign=bottom;" parent="b2223zaOqNi2kYBtWq65-101" connectable="0" vertex="1">
          <mxGeometry x="1" relative="1" as="geometry">
            <mxPoint x="-10" y="-55" as="offset" />
          </mxGeometry>
        </mxCell>
        <mxCell id="b2223zaOqNi2kYBtWq65-106" value="" style="endArrow=none;html=1;rounded=0;exitX=1;exitY=0.5;exitDx=0;exitDy=0;entryX=0;entryY=0.5;entryDx=0;entryDy=0;" parent="1" source="b2223zaOqNi2kYBtWq65-117" target="b2223zaOqNi2kYBtWq65-4" edge="1">
          <mxGeometry relative="1" as="geometry">
            <mxPoint x="-160" y="245" as="sourcePoint" />
            <mxPoint x="80" y="375" as="targetPoint" />
          </mxGeometry>
        </mxCell>
        <mxCell id="b2223zaOqNi2kYBtWq65-107" value="1" style="resizable=0;html=1;whiteSpace=wrap;align=right;verticalAlign=bottom;" parent="b2223zaOqNi2kYBtWq65-106" connectable="0" vertex="1">
          <mxGeometry x="1" relative="1" as="geometry">
            <mxPoint x="-72" as="offset" />
          </mxGeometry>
        </mxCell>
        <mxCell id="b2223zaOqNi2kYBtWq65-110" value="" style="endArrow=none;html=1;rounded=0;exitX=1;exitY=0.5;exitDx=0;exitDy=0;entryX=0;entryY=0.5;entryDx=0;entryDy=0;" parent="1" source="b2223zaOqNi2kYBtWq65-116" target="b2223zaOqNi2kYBtWq65-117" edge="1">
          <mxGeometry relative="1" as="geometry">
            <mxPoint x="-380" y="255" as="sourcePoint" />
            <mxPoint x="-280" y="245" as="targetPoint" />
          </mxGeometry>
        </mxCell>
        <mxCell id="b2223zaOqNi2kYBtWq65-111" value="N" style="resizable=0;html=1;whiteSpace=wrap;align=right;verticalAlign=bottom;" parent="b2223zaOqNi2kYBtWq65-110" connectable="0" vertex="1">
          <mxGeometry x="1" relative="1" as="geometry">
            <mxPoint x="-37" as="offset" />
          </mxGeometry>
        </mxCell>
        <mxCell id="b2223zaOqNi2kYBtWq65-116" value="Aircraft" style="whiteSpace=wrap;html=1;align=center;" parent="1" vertex="1">
          <mxGeometry x="-470" y="205" width="120" height="60" as="geometry" />
        </mxCell>
        <mxCell id="b2223zaOqNi2kYBtWq65-117" value="Flies" style="shape=rhombus;perimeter=rhombusPerimeter;whiteSpace=wrap;html=1;align=center;" parent="1" vertex="1">
          <mxGeometry x="-270" y="205" width="120" height="60" as="geometry" />
        </mxCell>
        <mxCell id="vnUN6NfqjkLT95MUsFVZ-1" value="economy_class_capacity" style="ellipse;whiteSpace=wrap;html=1;align=center;" parent="1" vertex="1">
          <mxGeometry x="-720" y="215" width="150" height="55" as="geometry" />
        </mxCell>
        <mxCell id="vnUN6NfqjkLT95MUsFVZ-2" value="" style="endArrow=none;html=1;rounded=0;exitX=1;exitY=0.5;exitDx=0;exitDy=0;entryX=0;entryY=0.75;entryDx=0;entryDy=0;" parent="1" source="vnUN6NfqjkLT95MUsFVZ-1" target="b2223zaOqNi2kYBtWq65-116" edge="1">
          <mxGeometry relative="1" as="geometry">
            <mxPoint x="-120" y="455" as="sourcePoint" />
            <mxPoint x="40" y="455" as="targetPoint" />
          </mxGeometry>
        </mxCell>
        <mxCell id="vnUN6NfqjkLT95MUsFVZ-5" value="" style="endArrow=none;html=1;rounded=0;exitX=1;exitY=0.5;exitDx=0;exitDy=0;entryX=0;entryY=0.5;entryDx=0;entryDy=0;" parent="1" source="b2223zaOqNi2kYBtWq65-4" target="b2223zaOqNi2kYBtWq65-58" edge="1">
          <mxGeometry relative="1" as="geometry">
            <mxPoint x="-160" y="455" as="sourcePoint" />
            <mxPoint y="455" as="targetPoint" />
          </mxGeometry>
        </mxCell>
        <mxCell id="vnUN6NfqjkLT95MUsFVZ-6" value="N" style="resizable=0;html=1;whiteSpace=wrap;align=right;verticalAlign=bottom;" parent="vnUN6NfqjkLT95MUsFVZ-5" connectable="0" vertex="1">
          <mxGeometry x="1" relative="1" as="geometry">
            <mxPoint x="-40" as="offset" />
          </mxGeometry>
        </mxCell>
        <mxCell id="vnUN6NfqjkLT95MUsFVZ-8" value="estimated_time" style="ellipse;whiteSpace=wrap;html=1;align=center;" parent="1" vertex="1">
          <mxGeometry x="90" y="50" width="90" height="50" as="geometry" />
        </mxCell>
        <mxCell id="vnUN6NfqjkLT95MUsFVZ-10" value="" style="endArrow=none;html=1;rounded=0;exitX=0.75;exitY=0;exitDx=0;exitDy=0;entryX=0.5;entryY=1;entryDx=0;entryDy=0;" parent="1" source="b2223zaOqNi2kYBtWq65-4" target="vnUN6NfqjkLT95MUsFVZ-8" edge="1">
          <mxGeometry relative="1" as="geometry">
            <mxPoint x="-150" y="305" as="sourcePoint" />
            <mxPoint x="10" y="305" as="targetPoint" />
          </mxGeometry>
        </mxCell>
        <mxCell id="NQdyUY7oWoHfVjmba7Tq-1" value="" style="endArrow=none;html=1;rounded=0;entryX=0;entryY=0.5;entryDx=0;entryDy=0;exitX=1;exitY=0.5;exitDx=0;exitDy=0;" parent="1" source="b2223zaOqNi2kYBtWq65-58" target="b2223zaOqNi2kYBtWq65-1" edge="1">
          <mxGeometry relative="1" as="geometry">
            <mxPoint y="250" as="sourcePoint" />
            <mxPoint x="160" y="250" as="targetPoint" />
          </mxGeometry>
        </mxCell>
        <mxCell id="NQdyUY7oWoHfVjmba7Tq-2" value="1" style="resizable=0;html=1;whiteSpace=wrap;align=right;verticalAlign=bottom;" parent="NQdyUY7oWoHfVjmba7Tq-1" connectable="0" vertex="1">
          <mxGeometry x="1" relative="1" as="geometry">
            <mxPoint x="-52" y="50" as="offset" />
          </mxGeometry>
        </mxCell>
        <mxCell id="NQdyUY7oWoHfVjmba7Tq-3" value="Destination" style="shape=rhombus;perimeter=rhombusPerimeter;whiteSpace=wrap;html=1;align=center;" parent="1" vertex="1">
          <mxGeometry x="190" y="250" width="95" height="60" as="geometry" />
        </mxCell>
        <mxCell id="QAVyppkqZYYIvtkT26d0-1" value="" style="endArrow=none;html=1;rounded=0;entryX=0;entryY=0.5;entryDx=0;entryDy=0;exitX=1;exitY=0.5;exitDx=0;exitDy=0;" parent="1" source="b2223zaOqNi2kYBtWq65-4" target="NQdyUY7oWoHfVjmba7Tq-3" edge="1">
          <mxGeometry relative="1" as="geometry">
            <mxPoint y="280" as="sourcePoint" />
            <mxPoint x="160" y="280" as="targetPoint" />
          </mxGeometry>
        </mxCell>
        <mxCell id="QAVyppkqZYYIvtkT26d0-2" value="N" style="resizable=0;html=1;whiteSpace=wrap;align=right;verticalAlign=bottom;" parent="QAVyppkqZYYIvtkT26d0-1" connectable="0" vertex="1">
          <mxGeometry x="1" relative="1" as="geometry">
            <mxPoint x="-45" as="offset" />
          </mxGeometry>
        </mxCell>
        <mxCell id="QAVyppkqZYYIvtkT26d0-3" value="" style="endArrow=none;html=1;rounded=0;entryX=0;entryY=0.5;entryDx=0;entryDy=0;exitX=1;exitY=0.5;exitDx=0;exitDy=0;" parent="1" source="NQdyUY7oWoHfVjmba7Tq-3" target="b2223zaOqNi2kYBtWq65-1" edge="1">
          <mxGeometry relative="1" as="geometry">
            <mxPoint y="280" as="sourcePoint" />
            <mxPoint x="160" y="280" as="targetPoint" />
          </mxGeometry>
        </mxCell>
        <mxCell id="QAVyppkqZYYIvtkT26d0-4" value="1" style="resizable=0;html=1;whiteSpace=wrap;align=right;verticalAlign=bottom;" parent="QAVyppkqZYYIvtkT26d0-3" connectable="0" vertex="1">
          <mxGeometry x="1" relative="1" as="geometry">
            <mxPoint x="-53" y="-20" as="offset" />
          </mxGeometry>
        </mxCell>
        <mxCell id="Z3CzPBw_4ywsS45tL4Ca-3" value="city" style="ellipse;whiteSpace=wrap;html=1;align=center;" parent="1" vertex="1">
          <mxGeometry x="260" y="545.04" width="80" height="34.96" as="geometry" />
        </mxCell>
        <mxCell id="Z3CzPBw_4ywsS45tL4Ca-4" value="street" style="ellipse;whiteSpace=wrap;html=1;align=center;" parent="1" vertex="1">
          <mxGeometry x="285" y="595.04" width="70" height="34.96" as="geometry" />
        </mxCell>
        <mxCell id="Z3CzPBw_4ywsS45tL4Ca-5" value="house_no" style="ellipse;whiteSpace=wrap;html=1;align=center;" parent="1" vertex="1">
          <mxGeometry x="275" y="650" width="80" height="44.96" as="geometry" />
        </mxCell>
        <mxCell id="Z3CzPBw_4ywsS45tL4Ca-6" value="" style="endArrow=none;html=1;rounded=0;entryX=0;entryY=0.5;entryDx=0;entryDy=0;exitX=0.5;exitY=0;exitDx=0;exitDy=0;" parent="1" source="b2223zaOqNi2kYBtWq65-42" target="Z3CzPBw_4ywsS45tL4Ca-3" edge="1">
          <mxGeometry relative="1" as="geometry">
            <mxPoint x="-40" y="490" as="sourcePoint" />
            <mxPoint x="120" y="490" as="targetPoint" />
          </mxGeometry>
        </mxCell>
        <mxCell id="Z3CzPBw_4ywsS45tL4Ca-7" value="" style="endArrow=none;html=1;rounded=0;entryX=0;entryY=0.5;entryDx=0;entryDy=0;exitX=1;exitY=0.5;exitDx=0;exitDy=0;" parent="1" source="b2223zaOqNi2kYBtWq65-42" target="Z3CzPBw_4ywsS45tL4Ca-4" edge="1">
          <mxGeometry relative="1" as="geometry">
            <mxPoint x="-40" y="490" as="sourcePoint" />
            <mxPoint x="120" y="490" as="targetPoint" />
          </mxGeometry>
        </mxCell>
        <mxCell id="Z3CzPBw_4ywsS45tL4Ca-8" value="" style="endArrow=none;html=1;rounded=0;entryX=0;entryY=0.5;entryDx=0;entryDy=0;exitX=1;exitY=1;exitDx=0;exitDy=0;" parent="1" source="b2223zaOqNi2kYBtWq65-42" target="Z3CzPBw_4ywsS45tL4Ca-5" edge="1">
          <mxGeometry relative="1" as="geometry">
            <mxPoint x="-40" y="490" as="sourcePoint" />
            <mxPoint x="120" y="490" as="targetPoint" />
          </mxGeometry>
        </mxCell>
      </root>
    </mxGraphModel>
  </diagram>
  <diagram id="iNQd8kfftKVqM0_Lcbkq" name="Relational-shcema">
    <mxGraphModel dx="2116" dy="657" grid="1" gridSize="10" guides="1" tooltips="1" connect="1" arrows="1" fold="1" page="1" pageScale="1" pageWidth="850" pageHeight="1100" math="0" shadow="0">
      <root>
        <mxCell id="0" />
        <mxCell id="1" parent="0" />
        <mxCell id="5stHuUrjbayk9KTU00dm-1" value="Airport" style="rounded=0;whiteSpace=wrap;html=1;" parent="1" vertex="1">
          <mxGeometry x="80" y="130" width="120" height="30" as="geometry" />
        </mxCell>
        <mxCell id="5stHuUrjbayk9KTU00dm-2" value="" style="rounded=0;whiteSpace=wrap;html=1;" parent="1" vertex="1">
          <mxGeometry x="80" y="160" width="480" height="40" as="geometry" />
        </mxCell>
        <mxCell id="PCs95BX4104dzNfsbGc6-2" style="edgeStyle=orthogonalEdgeStyle;rounded=0;orthogonalLoop=1;jettySize=auto;html=1;exitX=0.5;exitY=1;exitDx=0;exitDy=0;" parent="1" source="5stHuUrjbayk9KTU00dm-2" target="5stHuUrjbayk9KTU00dm-2" edge="1">
          <mxGeometry relative="1" as="geometry" />
        </mxCell>
        <mxCell id="PCs95BX4104dzNfsbGc6-3" value="&lt;u&gt;AID&lt;/u&gt;" style="rounded=0;whiteSpace=wrap;html=1;" parent="1" vertex="1">
          <mxGeometry x="80" y="160" width="120" height="40" as="geometry" />
        </mxCell>
        <mxCell id="PCs95BX4104dzNfsbGc6-5" value="airport_name" style="rounded=0;whiteSpace=wrap;html=1;" parent="1" vertex="1">
          <mxGeometry x="200" y="160" width="120" height="40" as="geometry" />
        </mxCell>
        <mxCell id="PCs95BX4104dzNfsbGc6-6" value="country" style="rounded=0;whiteSpace=wrap;html=1;" parent="1" vertex="1">
          <mxGeometry x="320" y="160" width="120" height="40" as="geometry" />
        </mxCell>
        <mxCell id="PCs95BX4104dzNfsbGc6-8" value="city" style="rounded=0;whiteSpace=wrap;html=1;" parent="1" vertex="1">
          <mxGeometry x="440" y="160" width="120" height="40" as="geometry" />
        </mxCell>
        <mxCell id="qCQDEyr-SaX9fgjCLFwG-1" value="Flight" style="rounded=0;whiteSpace=wrap;html=1;" parent="1" vertex="1">
          <mxGeometry x="80" y="270" width="120" height="30" as="geometry" />
        </mxCell>
        <mxCell id="qCQDEyr-SaX9fgjCLFwG-2" value="" style="rounded=0;whiteSpace=wrap;html=1;" parent="1" vertex="1">
          <mxGeometry x="90" y="300" width="530" height="40" as="geometry" />
        </mxCell>
        <mxCell id="qCQDEyr-SaX9fgjCLFwG-3" style="edgeStyle=orthogonalEdgeStyle;rounded=0;orthogonalLoop=1;jettySize=auto;html=1;exitX=0.5;exitY=1;exitDx=0;exitDy=0;" parent="1" source="qCQDEyr-SaX9fgjCLFwG-2" target="qCQDEyr-SaX9fgjCLFwG-2" edge="1">
          <mxGeometry relative="1" as="geometry" />
        </mxCell>
        <mxCell id="qCQDEyr-SaX9fgjCLFwG-4" value="&lt;u&gt;FID&lt;/u&gt;" style="rounded=0;whiteSpace=wrap;html=1;" parent="1" vertex="1">
          <mxGeometry x="80" y="300" width="120" height="40" as="geometry" />
        </mxCell>
        <mxCell id="qCQDEyr-SaX9fgjCLFwG-5" value="departure_time" style="rounded=0;whiteSpace=wrap;html=1;" parent="1" vertex="1">
          <mxGeometry x="200" y="300" width="120" height="40" as="geometry" />
        </mxCell>
        <mxCell id="qCQDEyr-SaX9fgjCLFwG-6" value="arrival_time" style="rounded=0;whiteSpace=wrap;html=1;" parent="1" vertex="1">
          <mxGeometry x="320" y="300" width="120" height="40" as="geometry" />
        </mxCell>
        <mxCell id="4-mCHyxPLfWIK4kplmNw-5" value="status" style="rounded=0;whiteSpace=wrap;html=1;" parent="1" vertex="1">
          <mxGeometry x="440" y="300" width="70" height="40" as="geometry" />
        </mxCell>
        <mxCell id="4-mCHyxPLfWIK4kplmNw-6" value="Passenger" style="rounded=0;whiteSpace=wrap;html=1;" parent="1" vertex="1">
          <mxGeometry x="80" y="420" width="120" height="30" as="geometry" />
        </mxCell>
        <mxCell id="4-mCHyxPLfWIK4kplmNw-8" style="edgeStyle=orthogonalEdgeStyle;rounded=0;orthogonalLoop=1;jettySize=auto;html=1;exitX=0.5;exitY=1;exitDx=0;exitDy=0;" parent="1" edge="1">
          <mxGeometry relative="1" as="geometry">
            <mxPoint x="475" y="490" as="sourcePoint" />
            <mxPoint x="475" y="490" as="targetPoint" />
          </mxGeometry>
        </mxCell>
        <mxCell id="4-mCHyxPLfWIK4kplmNw-9" value="&lt;u&gt;nationality&lt;/u&gt;" style="rounded=0;whiteSpace=wrap;html=1;" parent="1" vertex="1">
          <mxGeometry x="80" y="450" width="120" height="40" as="geometry" />
        </mxCell>
        <mxCell id="4-mCHyxPLfWIK4kplmNw-10" value="&lt;span style=&quot;color: rgb(0, 0, 0); font-family: Helvetica; font-size: 12px; font-style: normal; font-variant-ligatures: normal; font-variant-caps: normal; font-weight: 400; letter-spacing: normal; orphans: 2; text-align: center; text-indent: 0px; text-transform: none; widows: 2; word-spacing: 0px; -webkit-text-stroke-width: 0px; white-space: normal; background-color: rgb(251, 251, 251); text-decoration-thickness: initial; text-decoration-style: initial; text-decoration-color: initial; display: inline !important; float: none;&quot;&gt;&lt;u&gt;passport_no&lt;/u&gt;&lt;/span&gt;" style="rounded=0;whiteSpace=wrap;html=1;" parent="1" vertex="1">
          <mxGeometry x="200" y="450" width="120" height="40" as="geometry" />
        </mxCell>
        <mxCell id="4-mCHyxPLfWIK4kplmNw-11" value="Fname" style="rounded=0;whiteSpace=wrap;html=1;" parent="1" vertex="1">
          <mxGeometry x="320" y="450" width="80" height="40" as="geometry" />
        </mxCell>
        <mxCell id="4-mCHyxPLfWIK4kplmNw-12" value="Lname" style="rounded=0;whiteSpace=wrap;html=1;" parent="1" vertex="1">
          <mxGeometry x="400" y="450" width="90" height="40" as="geometry" />
        </mxCell>
        <mxCell id="4-mCHyxPLfWIK4kplmNw-13" value="age" style="rounded=0;whiteSpace=wrap;html=1;" parent="1" vertex="1">
          <mxGeometry x="490" y="450" width="80" height="40" as="geometry" />
        </mxCell>
        <mxCell id="xZOTT_UACIytvMEJz36r-1" value="gender" style="rounded=0;whiteSpace=wrap;html=1;" parent="1" vertex="1">
          <mxGeometry x="570" y="450" width="90" height="40" as="geometry" />
        </mxCell>
        <mxCell id="o5ITbHIXkXLE1AXZA_v2-1" value="city" style="rounded=0;whiteSpace=wrap;html=1;" parent="1" vertex="1">
          <mxGeometry x="660" y="450" width="70" height="40" as="geometry" />
        </mxCell>
        <mxCell id="COwKn-SDXDjAllXpk6i8-1" value="Aircraft" style="rounded=0;whiteSpace=wrap;html=1;" parent="1" vertex="1">
          <mxGeometry x="80" y="570" width="120" height="30" as="geometry" />
        </mxCell>
        <mxCell id="COwKn-SDXDjAllXpk6i8-2" value="" style="rounded=0;whiteSpace=wrap;html=1;" parent="1" vertex="1">
          <mxGeometry x="80" y="600" width="800" height="40" as="geometry" />
        </mxCell>
        <mxCell id="COwKn-SDXDjAllXpk6i8-3" style="edgeStyle=orthogonalEdgeStyle;rounded=0;orthogonalLoop=1;jettySize=auto;html=1;exitX=0.5;exitY=1;exitDx=0;exitDy=0;" parent="1" source="COwKn-SDXDjAllXpk6i8-2" target="COwKn-SDXDjAllXpk6i8-2" edge="1">
          <mxGeometry relative="1" as="geometry" />
        </mxCell>
        <mxCell id="COwKn-SDXDjAllXpk6i8-4" value="&lt;u&gt;ArID&lt;/u&gt;" style="rounded=0;whiteSpace=wrap;html=1;" parent="1" vertex="1">
          <mxGeometry x="80" y="600" width="120" height="40" as="geometry" />
        </mxCell>
        <mxCell id="COwKn-SDXDjAllXpk6i8-5" value="model_name" style="rounded=0;whiteSpace=wrap;html=1;" parent="1" vertex="1">
          <mxGeometry x="200" y="600" width="120" height="40" as="geometry" />
        </mxCell>
        <mxCell id="COwKn-SDXDjAllXpk6i8-6" value="economy_class_capcity" style="rounded=0;whiteSpace=wrap;html=1;" parent="1" vertex="1">
          <mxGeometry x="320" y="600" width="170" height="40" as="geometry" />
        </mxCell>
        <mxCell id="COwKn-SDXDjAllXpk6i8-7" value="first_class_capacity" style="rounded=0;whiteSpace=wrap;html=1;" parent="1" vertex="1">
          <mxGeometry x="489" y="600" width="130" height="40" as="geometry" />
        </mxCell>
        <mxCell id="COwKn-SDXDjAllXpk6i8-8" value="screen" style="rounded=0;whiteSpace=wrap;html=1;" parent="1" vertex="1">
          <mxGeometry x="619" y="600" width="90" height="40" as="geometry" />
        </mxCell>
        <mxCell id="COwKn-SDXDjAllXpk6i8-9" value="wifi" style="rounded=0;whiteSpace=wrap;html=1;" parent="1" vertex="1">
          <mxGeometry x="709" y="600" width="90" height="40" as="geometry" />
        </mxCell>
        <mxCell id="6KXpfqIHVVpo4ne6k9n3-1" value="Phone number" style="rounded=0;whiteSpace=wrap;html=1;" parent="1" vertex="1">
          <mxGeometry x="1040" y="420" width="120" height="30" as="geometry" />
        </mxCell>
        <mxCell id="6KXpfqIHVVpo4ne6k9n3-2" value="" style="rounded=0;whiteSpace=wrap;html=1;" parent="1" vertex="1">
          <mxGeometry x="1040" y="450" width="240" height="40" as="geometry" />
        </mxCell>
        <mxCell id="6KXpfqIHVVpo4ne6k9n3-3" style="edgeStyle=orthogonalEdgeStyle;rounded=0;orthogonalLoop=1;jettySize=auto;html=1;exitX=0.5;exitY=1;exitDx=0;exitDy=0;" parent="1" source="6KXpfqIHVVpo4ne6k9n3-2" target="6KXpfqIHVVpo4ne6k9n3-2" edge="1">
          <mxGeometry relative="1" as="geometry" />
        </mxCell>
        <mxCell id="6KXpfqIHVVpo4ne6k9n3-4" value="&lt;u&gt;nationality&lt;/u&gt;" style="rounded=0;whiteSpace=wrap;html=1;" parent="1" vertex="1">
          <mxGeometry x="1040" y="450" width="120" height="40" as="geometry" />
        </mxCell>
        <mxCell id="6KXpfqIHVVpo4ne6k9n3-5" value="&lt;u&gt;passport_no&lt;/u&gt;" style="rounded=0;whiteSpace=wrap;html=1;" parent="1" vertex="1">
          <mxGeometry x="1160" y="450" width="120" height="40" as="geometry" />
        </mxCell>
        <mxCell id="3BOuv90eBdSzSmUsTBRF-1" value="FID" style="rounded=0;whiteSpace=wrap;html=1;" parent="1" vertex="1">
          <mxGeometry x="799" y="600" width="81" height="40" as="geometry" />
        </mxCell>
        <mxCell id="trPJpEtc_eAXhB23Jlqb-4" value="" style="endArrow=classic;html=1;rounded=0;exitX=0.5;exitY=1;exitDx=0;exitDy=0;entryX=0.25;entryY=1;entryDx=0;entryDy=0;" parent="1" source="3BOuv90eBdSzSmUsTBRF-1" target="qCQDEyr-SaX9fgjCLFwG-4" edge="1">
          <mxGeometry width="50" height="50" relative="1" as="geometry">
            <mxPoint x="875" y="610" as="sourcePoint" />
            <mxPoint x="190" y="360" as="targetPoint" />
            <Array as="points">
              <mxPoint x="840" y="680" />
              <mxPoint x="130" y="680" />
              <mxPoint x="30" y="680" />
              <mxPoint x="30" y="480" />
              <mxPoint x="30" y="360" />
              <mxPoint x="110" y="360" />
            </Array>
          </mxGeometry>
        </mxCell>
        <mxCell id="vZdHp5l7IHASFaFswgqt-1" value="Book" style="rounded=0;whiteSpace=wrap;html=1;" parent="1" vertex="1">
          <mxGeometry x="80" y="730" width="120" height="30" as="geometry" />
        </mxCell>
        <mxCell id="vZdHp5l7IHASFaFswgqt-2" value="" style="rounded=0;whiteSpace=wrap;html=1;" parent="1" vertex="1">
          <mxGeometry x="80" y="760" width="740" height="40" as="geometry" />
        </mxCell>
        <mxCell id="vZdHp5l7IHASFaFswgqt-3" style="edgeStyle=orthogonalEdgeStyle;rounded=0;orthogonalLoop=1;jettySize=auto;html=1;exitX=0.5;exitY=1;exitDx=0;exitDy=0;" parent="1" source="vZdHp5l7IHASFaFswgqt-2" target="vZdHp5l7IHASFaFswgqt-2" edge="1">
          <mxGeometry relative="1" as="geometry" />
        </mxCell>
        <mxCell id="vZdHp5l7IHASFaFswgqt-4" value="&lt;u&gt;PID&lt;/u&gt;" style="rounded=0;whiteSpace=wrap;html=1;" parent="1" vertex="1">
          <mxGeometry x="80" y="760" width="120" height="40" as="geometry" />
        </mxCell>
        <mxCell id="vZdHp5l7IHASFaFswgqt-5" value="&lt;u&gt;FID&lt;/u&gt;" style="rounded=0;whiteSpace=wrap;html=1;" parent="1" vertex="1">
          <mxGeometry x="200" y="760" width="120" height="40" as="geometry" />
        </mxCell>
        <mxCell id="vZdHp5l7IHASFaFswgqt-6" value="status" style="rounded=0;whiteSpace=wrap;html=1;" parent="1" vertex="1">
          <mxGeometry x="320" y="760" width="120" height="40" as="geometry" />
        </mxCell>
        <mxCell id="vZdHp5l7IHASFaFswgqt-7" value="price" style="rounded=0;whiteSpace=wrap;html=1;" parent="1" vertex="1">
          <mxGeometry x="440" y="760" width="130" height="40" as="geometry" />
        </mxCell>
        <mxCell id="vZdHp5l7IHASFaFswgqt-8" value="fare_class" style="rounded=0;whiteSpace=wrap;html=1;" parent="1" vertex="1">
          <mxGeometry x="560" y="760" width="130" height="40" as="geometry" />
        </mxCell>
        <mxCell id="vZdHp5l7IHASFaFswgqt-9" value="seat_number" style="rounded=0;whiteSpace=wrap;html=1;" parent="1" vertex="1">
          <mxGeometry x="690" y="760" width="130" height="40" as="geometry" />
        </mxCell>
        <mxCell id="jewj4nv2N4BXOj8nhQPe-2" value="" style="endArrow=classic;html=1;rounded=0;exitX=0;exitY=0.5;exitDx=0;exitDy=0;entryX=0;entryY=0.5;entryDx=0;entryDy=0;" parent="1" source="vZdHp5l7IHASFaFswgqt-4" target="4-mCHyxPLfWIK4kplmNw-9" edge="1">
          <mxGeometry width="50" height="50" relative="1" as="geometry">
            <mxPoint x="240" y="710" as="sourcePoint" />
            <mxPoint x="70" y="520" as="targetPoint" />
            <Array as="points">
              <mxPoint x="-20" y="780" />
              <mxPoint x="-20" y="470" />
            </Array>
          </mxGeometry>
        </mxCell>
        <mxCell id="jewj4nv2N4BXOj8nhQPe-3" value="" style="endArrow=classic;html=1;rounded=0;entryX=0;entryY=0.75;entryDx=0;entryDy=0;exitX=0.5;exitY=1;exitDx=0;exitDy=0;" parent="1" source="vZdHp5l7IHASFaFswgqt-5" target="qCQDEyr-SaX9fgjCLFwG-4" edge="1">
          <mxGeometry width="50" height="50" relative="1" as="geometry">
            <mxPoint x="260" y="840" as="sourcePoint" />
            <mxPoint x="80" y="280.0000000000001" as="targetPoint" />
            <Array as="points">
              <mxPoint x="260" y="840" />
              <mxPoint x="-70" y="840" />
              <mxPoint x="-70" y="330" />
            </Array>
          </mxGeometry>
        </mxCell>
        <mxCell id="jewj4nv2N4BXOj8nhQPe-5" value="" style="rounded=0;whiteSpace=wrap;html=1;" parent="1" vertex="1">
          <mxGeometry x="620" y="299.17" width="190" height="40" as="geometry" />
        </mxCell>
        <mxCell id="jewj4nv2N4BXOj8nhQPe-6" style="edgeStyle=orthogonalEdgeStyle;rounded=0;orthogonalLoop=1;jettySize=auto;html=1;exitX=0.5;exitY=1;exitDx=0;exitDy=0;" parent="1" source="jewj4nv2N4BXOj8nhQPe-5" target="jewj4nv2N4BXOj8nhQPe-5" edge="1">
          <mxGeometry relative="1" as="geometry" />
        </mxCell>
        <mxCell id="jewj4nv2N4BXOj8nhQPe-7" value="AID_origin" style="rounded=0;whiteSpace=wrap;html=1;" parent="1" vertex="1">
          <mxGeometry x="620" y="300" width="80" height="40" as="geometry" />
        </mxCell>
        <mxCell id="jewj4nv2N4BXOj8nhQPe-8" value="AID_destination" style="rounded=0;whiteSpace=wrap;html=1;" parent="1" vertex="1">
          <mxGeometry x="700" y="299.17" width="110" height="40" as="geometry" />
        </mxCell>
        <mxCell id="tOREdWYYXHd241Vcrmmp-3" value="" style="endArrow=classic;html=1;rounded=0;exitX=0.5;exitY=1;exitDx=0;exitDy=0;entryX=0.5;entryY=1;entryDx=0;entryDy=0;" parent="1" source="6KXpfqIHVVpo4ne6k9n3-4" target="4-mCHyxPLfWIK4kplmNw-9" edge="1">
          <mxGeometry width="50" height="50" relative="1" as="geometry">
            <mxPoint x="590" y="510" as="sourcePoint" />
            <mxPoint x="148" y="331" as="targetPoint" />
            <Array as="points">
              <mxPoint x="1100" y="520" />
              <mxPoint x="870" y="520" />
              <mxPoint x="510" y="520" />
              <mxPoint x="140" y="520" />
            </Array>
          </mxGeometry>
        </mxCell>
        <mxCell id="vzwlDqSGTMGbtEjT-nSB-1" value="estimated_time" style="rounded=0;whiteSpace=wrap;html=1;" parent="1" vertex="1">
          <mxGeometry x="510" y="300" width="110" height="40" as="geometry" />
        </mxCell>
        <mxCell id="vzwlDqSGTMGbtEjT-nSB-2" value="" style="endArrow=classic;html=1;rounded=0;exitX=0.5;exitY=1;exitDx=0;exitDy=0;entryX=0.25;entryY=1;entryDx=0;entryDy=0;" parent="1" source="jewj4nv2N4BXOj8nhQPe-7" target="PCs95BX4104dzNfsbGc6-3" edge="1">
          <mxGeometry width="50" height="50" relative="1" as="geometry">
            <mxPoint x="430" y="340" as="sourcePoint" />
            <mxPoint x="480" y="290" as="targetPoint" />
            <Array as="points">
              <mxPoint x="660" y="360" />
              <mxPoint x="960" y="360" />
              <mxPoint x="960" y="240" />
              <mxPoint x="110" y="240" />
            </Array>
          </mxGeometry>
        </mxCell>
        <mxCell id="vzwlDqSGTMGbtEjT-nSB-4" value="" style="endArrow=classic;html=1;rounded=0;exitX=0.5;exitY=1;exitDx=0;exitDy=0;entryX=0.75;entryY=1;entryDx=0;entryDy=0;" parent="1" source="jewj4nv2N4BXOj8nhQPe-8" target="PCs95BX4104dzNfsbGc6-3" edge="1">
          <mxGeometry width="50" height="50" relative="1" as="geometry">
            <mxPoint x="470" y="340" as="sourcePoint" />
            <mxPoint x="520" y="290" as="targetPoint" />
            <Array as="points">
              <mxPoint x="755" y="390" />
              <mxPoint x="1000" y="390" />
              <mxPoint x="1000" y="220" />
              <mxPoint x="170" y="220" />
            </Array>
          </mxGeometry>
        </mxCell>
        <mxCell id="FDoHzVRdw1ltjuKWVBld-1" value="&lt;u&gt;phone_number&lt;/u&gt;" style="rounded=0;whiteSpace=wrap;html=1;" parent="1" vertex="1">
          <mxGeometry x="1275" y="450" width="120" height="40" as="geometry" />
        </mxCell>
        <mxCell id="ix55bw30ybjlY3IRpSg0-1" value="street" style="rounded=0;whiteSpace=wrap;html=1;" parent="1" vertex="1">
          <mxGeometry x="730" y="450" width="90" height="40" as="geometry" />
        </mxCell>
        <mxCell id="ix55bw30ybjlY3IRpSg0-2" value="house_no" style="rounded=0;whiteSpace=wrap;html=1;" parent="1" vertex="1">
          <mxGeometry x="820" y="450" width="90" height="40" as="geometry" />
        </mxCell>
      </root>
    </mxGraphModel>
  </diagram>
</mxfile>
